# xmcd
#
# Track frame offsets: 
#        150
#        16255
#        27349
#        47578
#        64276
#        73210
#        91777
#        105622
#        119869
#        135700
#        148285
#
# Disc length: 2300 seconds
#
# Revision: 1
# Processed by: cddbd v1.5.2PL0 Copyright (c) Steve Scherf et al.
# Submitted via: ExactAudioCopy v1.1
#
DISCID=a508fa0b
DTITLE=John Denver - John Denver
DYEAR=1979
DGENRE=C&W
TTITLE0=Downhill Stuff
TTITLE1=Sweet Melinda
TTITLE2=What's On Your Mind
TTITLE3=Joseph and Joe
TTITLE4=Life Is So Good
TTITLE5=Berkeley Woman
TTITLE6=Johnny B. Goode
TTITLE7=You're So Beautiful
TTITLE8=Southwind
TTITLE9=Garden Song
TTITLE10=Songs of ...
EXTD=
EXTT0=
EXTT1=
EXTT2=
EXTT3=
EXTT4=
EXTT5=
EXTT6=
EXTT7=
EXTT8=
EXTT9=
EXTT10=
PLAYORDER=
